<svg width="180" height="64" viewBox="0 0 180 64" fill="none" xmlns="http://www.w3.org/2000/svg">
<path d="M65.5575 44V21.28H56.5975V16H80.9975V21.28H72.0375V44H65.5575ZM90.2841 37.6L89.9241 30.12L103.324 16H110.524L98.4441 29L94.8441 32.84L90.2841 37.6ZM84.4841 44V16H90.9241V44H84.4841ZM103.644 44L93.6841 31.8L97.9241 27.2L111.204 44H103.644ZM120.892 44L108.812 16H115.812L126.372 40.8H122.252L132.972 16H139.412L127.292 44H120.892Z" fill="#E6E6EC"/>
<path d="M168.049 22.16C169.756 22.16 171.263 22.5067 172.569 23.2C173.903 23.8667 174.943 24.9067 175.689 26.32C176.463 27.7067 176.849 29.4933 176.849 31.68V44H170.609V32.64C170.609 30.9067 170.249 29.6267 169.529 28.8C168.809 27.9733 167.796 27.56 166.489 27.56C165.583 27.56 164.769 27.7733 164.049 28.2C163.329 28.6 162.769 29.2133 162.369 30.04C161.969 30.8667 161.769 31.92 161.769 33.2V44H155.529V32.64C155.529 30.9067 155.169 29.6267 154.449 28.8C153.756 27.9733 152.756 27.56 151.449 27.56C150.543 27.56 149.729 27.7733 149.009 28.2C148.289 28.6 147.729 29.2133 147.329 30.04C146.929 30.8667 146.729 31.92 146.729 33.2V44H140.489V22.48H146.449V28.36L145.329 26.64C146.076 25.1733 147.129 24.0667 148.489 23.32C149.876 22.5467 151.449 22.16 153.209 22.16C155.183 22.16 156.903 22.6667 158.369 23.68C159.863 24.6667 160.849 26.1867 161.329 28.24L159.129 27.64C159.849 25.96 160.996 24.6267 162.569 23.64C164.169 22.6533 165.996 22.16 168.049 22.16Z" fill="#BA0E0A"/>
<g clip-path="url(#clip0_45_26)">
<path d="M49.0555 33.676L35.7972 25.1907V15.9099C35.7972 11.9324 33.8085 8.61788 31.8197 7.95497C29.831 8.61788 27.8423 11.9324 27.8423 15.9099V25.1907L14.584 33.676C13.7885 34.2063 13.5234 35.0018 13.7885 35.7973L14.0537 36.858C14.4514 37.786 15.2469 38.3164 16.175 38.1838L27.8423 35.7973L29.1681 42.4264L25.1906 46.4039V49.0555L31.8197 47.7297L38.4489 49.0555V46.4039L34.4714 42.4264L35.7972 35.7973L47.4645 38.1838C48.3926 38.3164 49.1881 37.786 49.5858 36.858L49.9835 35.9299C50.1161 35.0018 49.851 34.2063 49.0555 33.676Z" stroke="#BA0E0A" stroke-width="2" stroke-linecap="round" stroke-linejoin="round"/>
</g>
<defs>
<clipPath id="clip0_45_26">
<rect width="45" height="45" fill="white" transform="translate(0 31.8198) rotate(-45)"/>
</clipPath>
</defs>
</svg>
