<svg width="557" height="557" viewBox="0 0 557 557" fill="none" xmlns="http://www.w3.org/2000/svg">
<g opacity="0.5">
<path d="M481.455 319.573C491.539 296.738 482.826 269.821 462.028 259.559L360.967 209.692C363.657 202.695 366.102 195.597 368.297 188.414C368.863 187.648 369.155 186.691 369.116 185.725C371.383 178.061 381.004 152.341 371.513 147.658L348.132 136.12L354.227 122.318L398.224 144.028C406.332 148.029 412.427 134.227 404.319 130.226L303.754 80.604C295.646 76.6033 289.551 90.4053 297.659 94.4061L341.656 116.116L335.561 129.918L312.18 118.381C306.303 115.481 301.802 122.589 298.449 126.818C293.907 132.544 288.341 139.237 285.324 146.069C281.606 152.218 277.851 159.056 273.957 166.766L172.902 116.903C138.993 100.171 101.536 139.471 115.961 176.888C108.024 198.883 115.867 223.228 134.453 232.398L228.845 278.975C220.036 304.54 212.341 329.454 206.321 351.908L176.259 337.074C149.967 324.101 125.619 379.325 151.879 392.283L193.6 412.869C192.289 424.09 189.883 444.654 201.668 450.469C213.453 456.284 226.82 441.129 234.115 432.861L275.837 453.448C302.09 466.402 326.508 411.213 300.217 398.24L270.161 383.409C282.582 364.105 295.713 341.857 308.593 318.325L402.96 364.889C421.546 374.06 444.236 364.782 455.09 344.209C460.782 342.289 466.072 339.103 470.615 334.858C475.157 330.614 478.851 325.406 481.455 319.573ZM310.617 134.419L360.886 159.224C360.202 163.962 359.159 169.062 357.764 174.493L301.555 146.757C304.591 142.136 307.619 138.016 310.617 134.419ZM293.669 159.675L353.454 189.175C351.974 193.689 350.296 198.442 348.39 203.486L286.543 172.969C288.977 168.185 291.346 163.774 293.669 159.675ZM140.548 218.596C131.591 214.177 126.578 204.105 126.83 193.186C129.641 195.8 132.954 198.039 136.335 199.708L238.967 250.35C237.239 255.045 235.53 259.816 233.815 264.618L140.548 218.596ZM155.369 374.792C153.296 367.7 160.365 346.041 170.164 350.876L225.851 378.355L213.661 405.959L157.974 378.481C156.471 377.739 155.741 376.118 155.369 374.792C155.741 376.118 154.251 370.962 155.369 374.792ZM207.842 436.471C207.262 435.252 205.937 431.043 206.887 419.426L220.822 426.302C213.001 434.529 209.101 436.151 207.842 436.471C209.101 436.151 207.265 435.245 207.842 436.471ZM295.18 429.373C293.275 433.686 287.287 442.288 281.919 439.64L226.232 412.161L238.422 384.557L294.116 412.039C297.491 413.704 298.669 421.471 295.18 429.373ZM244.517 370.755L253.659 350.052C257.591 341.15 245.02 334.947 241.089 343.849L231.946 364.553L219.055 358.192C225.482 333.896 233.996 306.487 243.821 278.38C244.326 277.704 244.611 276.87 244.628 276.013L245.6 273.189L245.772 272.695C247.693 267.271 249.67 261.944 251.632 256.6L310.167 285.483C307.558 290.49 304.958 295.511 302.301 300.487L299.906 304.852L299.882 304.908C285.665 331.226 271.065 356.052 257.408 377.116L244.517 370.755ZM409.055 351.087L315.781 305.063C318.16 300.613 320.516 296.162 322.819 291.726L425.458 342.371C428.852 344.046 432.581 345.256 436.292 345.885C428.535 353.101 418.012 355.506 409.055 351.087ZM449.041 330.5C443.118 331.967 436.971 331.289 431.553 328.569L142.43 185.906C128.074 178.822 122.454 159.273 130.367 144.04C137.556 130.189 153.787 124.272 166.81 130.698L348.895 220.545C348.933 220.572 348.976 220.593 349.02 220.607L455.933 273.361C479.559 285.019 474.841 324.202 449.041 330.5C457.665 328.393 443.133 331.972 449.041 330.5Z" fill="#BA0E0A"/>
<path d="M140.084 176.701C113.55 172.022 105.649 216.833 132.183 221.512C158.717 226.191 166.618 181.379 140.084 176.701ZM134.817 206.575C125.974 205.016 128.608 190.079 137.451 191.638C146.293 193.197 143.659 208.134 134.817 206.575ZM441.918 229.922C415.384 225.243 407.483 270.055 434.017 274.734C460.551 279.412 468.452 234.601 441.918 229.922ZM436.651 259.796C427.808 258.237 430.442 243.3 439.285 244.859C448.127 246.418 445.493 261.356 436.651 259.796Z" fill="#BA0E0A"/>
</g>
</svg>
