<svg width="890" height="890" viewBox="0 0 890 890" fill="none" xmlns="http://www.w3.org/2000/svg">
<g opacity="0.03">
<path d="M454.257 9.44531V880.55H435.717V9.44531H454.257Z" fill="black"/>
<path d="M880.54 454.266H9.43555V435.727H880.54V454.266Z" fill="black"/>
<path d="M172.101 218.347C181.403 218.347 189.831 222.12 195.931 228.22C202.031 234.32 205.803 242.748 205.803 252.05C205.803 261.351 202.031 269.78 195.931 275.879C189.831 281.979 181.403 285.752 172.101 285.752C162.8 285.752 154.371 281.979 148.271 275.879C142.171 269.779 138.399 261.351 138.399 252.05C138.399 242.748 142.171 234.32 148.271 228.22C154.372 222.12 162.8 218.347 172.101 218.347ZM182.82 241.331C180.078 238.589 176.288 236.887 172.101 236.887C167.915 236.887 164.124 238.58 161.382 241.331C158.64 244.073 156.938 247.864 156.938 252.05C156.938 256.236 158.631 260.027 161.382 262.769C164.124 265.511 167.915 267.213 172.101 267.213C176.288 267.213 180.078 265.52 182.82 262.769C185.562 260.027 187.264 256.237 187.264 252.05C187.264 247.864 185.571 244.073 182.82 241.331Z" fill="black"/>
<path d="M445 0C567.887 0 679.133 49.8124 759.661 130.339C840.195 210.874 890 322.122 890 445C890 567.878 840.188 679.133 759.661 759.661C679.126 840.195 567.877 890 445 890C322.122 890 210.867 840.188 130.339 759.661C49.8053 679.126 0 567.878 0 445C0 322.122 49.8124 210.867 130.339 130.339C210.874 49.8053 322.122 0 445 0ZM746.564 143.45C669.387 66.272 562.778 18.5395 445 18.5395C327.238 18.5395 220.618 66.2744 143.436 143.45C66.2532 220.625 18.5254 327.236 18.5254 445.014C18.5254 562.776 66.2603 669.396 143.436 746.578C220.611 823.761 327.222 871.489 445 871.489C562.761 871.489 669.382 823.754 746.564 746.578C823.747 669.403 871.474 562.792 871.474 445.014C871.474 327.253 823.74 220.632 746.564 143.45Z" fill="black"/>
<path d="M669.613 704.459C638.973 731.012 603.56 752.229 564.825 766.666C527.451 780.596 487.077 788.205 444.993 788.205C409.193 788.205 374.643 782.703 342.146 772.499C308.543 761.945 277.131 746.342 248.803 726.568L259.375 711.433C286.095 730.083 315.794 744.832 347.649 754.834C378.342 764.476 411.042 769.675 444.993 769.675C484.944 769.675 523.146 762.498 558.376 749.368C594.987 735.723 628.497 715.639 657.516 690.502L669.615 704.478L669.613 704.459ZM210.659 695.645C176.543 663.736 148.94 624.944 130.069 581.48C111.888 539.598 101.803 493.446 101.803 445.004C101.803 413.206 106.165 382.345 114.317 352.997C122.018 325.257 133.096 298.968 147.062 274.597C147.457 275.038 147.871 275.471 148.295 275.894C152.269 279.869 157.219 282.85 162.767 284.451C149.693 307.38 139.333 332.019 132.138 357.928C124.455 385.576 120.351 414.772 120.351 445.015C120.351 490.984 129.865 534.651 147.024 574.177C164.874 615.295 190.986 651.998 223.271 682.185L210.666 695.655L210.659 695.645ZM185.091 220.933C216.329 184.728 254.981 155.128 298.676 134.501C343.097 113.533 392.7 101.801 445.007 101.801C539.775 101.801 625.583 140.215 687.686 202.321C749.789 264.426 788.206 350.225 788.206 445C788.206 483.449 781.857 520.465 770.154 555.043C758.036 590.852 740.16 624.012 717.644 653.419L702.941 642.194C724.25 614.362 741.162 582.986 752.626 549.101C763.677 516.466 769.666 481.455 769.666 445.003C769.666 355.351 733.332 274.188 674.576 215.432C615.829 156.685 534.659 120.341 445.005 120.341C395.459 120.341 348.524 131.419 306.57 151.228C265.404 170.66 228.996 198.475 199.544 232.452C198.468 230.943 197.262 229.526 195.956 228.22C192.864 225.128 189.186 222.645 185.091 220.933Z" fill="black"/>
<path d="M445 203.626C511.66 203.626 572.009 230.65 615.685 274.326C659.371 318.012 686.385 378.361 686.385 445.012C686.385 511.673 659.362 572.021 615.685 615.697C571.999 659.383 511.651 686.398 445 686.398C378.339 686.398 317.991 659.374 274.314 615.697C230.628 572.011 203.614 511.663 203.614 445.012C203.614 378.351 230.638 318.003 274.314 274.326C318 230.64 378.348 203.626 445 203.626ZM602.582 287.437C562.255 247.11 506.544 222.166 445 222.166C383.464 222.166 327.745 247.11 287.417 287.437C247.09 327.764 222.146 383.474 222.146 445.019C222.146 506.554 247.09 562.274 287.417 602.601C327.745 642.928 383.455 667.872 445 667.872C506.535 667.872 562.255 642.928 602.582 602.601C642.909 562.274 667.853 506.564 667.853 445.019C667.853 383.484 642.909 327.764 602.582 287.437Z" fill="black"/>
<path d="M445 305.427C483.542 305.427 518.442 321.05 543.697 346.315C568.954 371.572 584.584 406.47 584.584 445.012C584.584 483.553 568.961 518.454 543.697 543.708C518.439 568.966 483.542 584.596 445 584.596C406.458 584.596 371.558 568.973 346.303 543.708C321.046 518.451 305.415 483.553 305.415 445.012C305.415 406.47 321.038 371.57 346.303 346.315C371.56 321.058 406.458 305.427 445 305.427ZM530.586 359.418C508.679 337.511 478.418 323.967 445 323.967C411.574 323.967 381.312 337.519 359.413 359.418C337.506 381.325 323.962 411.586 323.962 445.005C323.962 478.43 337.515 508.693 359.413 530.591C381.321 552.498 411.581 566.043 445 566.043C478.426 566.043 508.688 552.49 530.586 530.591C552.494 508.684 566.038 478.423 566.038 445.005C566.038 411.579 552.485 381.316 530.586 359.418Z" fill="black"/>
<path d="M445 395.004C458.802 395.004 471.306 400.598 480.35 409.652C489.395 418.696 494.998 431.2 494.998 445.002C494.998 458.804 489.404 471.307 480.35 480.352C471.306 489.396 458.802 495 445 495C431.198 495 418.695 489.406 409.65 480.352C400.606 471.308 395.002 458.804 395.002 445.002C395.002 431.2 400.596 418.697 409.65 409.652C418.694 400.607 431.198 395.004 445 395.004ZM467.239 422.753C461.552 417.067 453.686 413.543 445 413.543C436.315 413.543 428.448 417.067 422.762 422.753C417.076 428.439 413.552 436.306 413.552 444.992C413.552 453.677 417.076 461.544 422.762 467.23C428.448 472.916 436.315 476.44 445 476.44C453.686 476.44 461.552 472.916 467.239 467.23C472.925 461.544 476.449 453.677 476.449 444.992C476.449 436.306 472.925 428.439 467.239 422.753Z" fill="black"/>
<path d="M172.101 218.347C181.403 218.347 189.831 222.12 195.931 228.22C202.031 234.32 205.803 242.748 205.803 252.05C205.803 261.351 202.031 269.78 195.931 275.879C189.831 281.979 181.403 285.752 172.101 285.752C162.8 285.752 154.371 281.979 148.271 275.879C142.171 269.779 138.399 261.351 138.399 252.05C138.399 242.748 142.171 234.32 148.271 228.22C154.372 222.12 162.8 218.347 172.101 218.347ZM182.82 241.331C180.078 238.589 176.288 236.887 172.101 236.887C167.915 236.887 164.124 238.58 161.382 241.331C158.64 244.073 156.938 247.864 156.938 252.05C156.938 256.236 158.631 260.027 161.382 262.769C164.124 265.511 167.915 267.213 172.101 267.213C176.288 267.213 180.078 265.52 182.82 262.769C185.562 260.027 187.264 256.237 187.264 252.05C187.264 247.864 185.571 244.073 182.82 241.331Z" fill="black"/>
<path d="M610.939 693.059L615.641 694.319L628.798 683.858C630.693 682.358 633.122 682 635.257 682.69L681.722 695.138C688.651 696.997 689.341 703.603 687.381 709.225C684.492 717.533 672.991 732.972 661.636 746.975C674.904 736.229 687.077 723.219 694.998 714.155C697.942 710.787 701.724 706.629 704.282 702.985C706.058 700.722 708.956 699.857 711.569 700.556C735.722 705.847 752.558 707.898 762.072 707.466C755.015 702.755 742.041 696.765 722.995 690.003C720.262 689.027 717.456 688.043 714.696 687.16C711.973 686.249 710.197 683.811 709.976 681.124C709.424 677.296 704.943 647.835 695.062 622.083C698.015 640.742 700.324 660.893 698.19 669.062C696.764 674.536 692.586 678.658 686.569 677.048L639.746 664.507C637.317 663.854 635.532 661.996 634.869 659.751L628.907 644.716L624.206 643.456C624.537 651.875 623.451 660.726 621.178 669.22C618.906 677.712 615.409 685.928 610.919 693.049L610.939 693.059ZM597.865 703.934C592.731 702.858 590.532 696.546 594.092 692.525C600.8 684.944 605.179 675.366 607.783 665.65C610.479 655.575 611.224 645.067 609.495 636.042C608.032 630.936 612.724 626.013 617.978 627.421L635.524 632.132C637.723 632.601 639.655 634.128 640.538 636.373L646.703 652.015L685.263 662.347C686.551 644.682 675.584 592.274 674.498 587.139C672.649 580.395 680.93 575.371 686.027 580.284C686.901 581.241 687.849 582.133 688.732 583.118C710.621 607.555 720.622 660.138 723.133 675.384C749.824 684.604 766.819 692.977 774.198 699.242C779.287 703.567 781.219 708.02 780.041 712.39C778.854 716.816 774.916 719.687 768.282 720.791C758.806 722.364 740.081 720.809 712.461 714.985C702.23 727.452 665.299 770.191 633.453 778.544C626.737 780.871 621.189 772.655 626.01 767.319C630.721 762.056 635.376 756.765 639.958 751.392C651.947 737.37 668.084 717.625 673.174 707.266L634.652 696.942L621.991 706.971C620.289 708.6 617.814 709.327 615.376 708.673L597.848 703.963L597.865 703.934Z" fill="black"/>
<path d="M316.748 728.366H311.88L301.879 714.859C300.434 712.918 298.18 711.952 295.935 712.062H247.833C240.665 712.062 238.282 718.264 238.715 724.207C239.359 732.985 246.471 750.871 253.814 767.333C243.785 753.522 235.384 737.808 230.085 726.996C228.116 722.985 225.54 717.988 224.003 713.802C222.872 711.152 220.305 709.57 217.599 709.57C192.905 708.429 176.113 706.046 167.022 703.175C175.054 700.452 189.14 698.023 209.29 696.422C212.188 696.192 215.141 695.962 218.039 695.823C220.901 695.649 223.247 693.753 224.158 691.214C225.686 687.662 237.637 660.363 253.848 638.043C246.166 655.303 238.722 674.165 238.667 682.612C238.63 688.27 241.602 693.34 247.831 693.34L296.301 693.349C298.812 693.349 301.021 692.015 302.235 690.019L311.878 677.036H316.745C314.252 685.078 313 693.911 313 702.699C313 711.485 314.252 720.327 316.745 728.377L316.748 728.366ZM326.565 742.25C331.81 742.536 335.554 737.015 333.162 732.203C328.644 723.14 326.896 712.752 326.896 702.697C326.896 692.263 328.902 681.921 332.904 673.65C335.646 669.095 332.38 663.124 326.942 663.124L308.78 663.133C306.535 663.022 304.281 663.989 302.836 665.93L292.835 679.437H252.913C256.244 662.038 280.396 614.248 282.77 609.575C286.303 603.549 279.605 596.537 273.404 599.97C272.309 600.669 271.168 601.285 270.064 602.012C242.599 619.954 219.321 668.157 212.954 682.226C184.79 684.222 166.204 687.903 157.456 692.052C151.429 694.914 148.402 698.714 148.411 703.241C148.411 707.823 151.466 711.614 157.594 714.401C166.344 718.376 184.827 721.725 213.01 723.234C219.671 737.928 244.273 788.762 272.87 805.076C278.759 809.06 286.239 802.564 282.964 796.16C279.78 789.857 276.652 783.536 273.606 777.16C265.657 760.516 255.177 737.264 252.951 725.939H292.837L302.47 738.903C303.694 740.909 305.902 742.252 308.423 742.252L326.577 742.243L326.565 742.25Z" fill="black"/>
</g>
</svg>
