<svg width="376" height="253" viewBox="0 0 376 253" fill="none" xmlns="http://www.w3.org/2000/svg">
<path d="M310.25 46.8031C310.247 46.7552 310.281 46.7175 310.287 46.6764C310.287 46.601 310.287 46.5496 310.306 46.4742C310.322 46.3989 310.353 46.3509 310.39 46.2858C310.431 46.207 310.471 46.1591 310.525 46.0974C310.556 46.0632 310.556 46.0083 310.593 45.9878L360.499 7.96921L297.533 49.3557L311.427 58.3078L310.25 46.8031Z" fill="white"/>
<path d="M313.047 58.2224L314.302 57.0576L312.454 52.4291L313.047 58.2224Z" fill="white"/>
<path d="M333.735 72.3605L376 0L318.556 62.7541L333.735 72.3605Z" fill="white"/>
<path d="M316.019 56.9594V56.9869L316.032 56.9971L317.555 61.3653L373.626 0.111816L312.058 47.0202L316.019 56.9594Z" fill="white"/>
<path d="M291.2 71.6238C291.646 71.6238 292.092 71.3908 292.364 70.9523L295.763 65.4741C296.203 64.7684 296.032 63.8023 295.392 63.326C294.749 62.8498 293.868 63.0211 293.435 63.7337L290.035 69.2119C289.595 69.9177 289.767 70.8838 290.407 71.36C290.647 71.5381 290.922 71.6238 291.2 71.6238Z" fill="white"/>
<path d="M270.951 104.25C271.412 103.568 271.288 102.599 270.67 102.085C270.055 101.578 269.168 101.708 268.697 102.393C266.209 106.028 263.696 109.595 261.143 113.058C260.656 113.72 260.75 114.692 261.355 115.234C261.614 115.463 261.929 115.573 262.242 115.573C262.654 115.573 263.059 115.378 263.337 114.997C265.903 111.513 268.441 107.923 270.951 104.25Z" fill="white"/>
<path d="M253.195 123.361C250.348 126.873 247.517 130.165 244.776 133.153C244.221 133.752 244.218 134.729 244.767 135.335C245.042 135.64 245.404 135.794 245.766 135.794C246.125 135.794 246.484 135.647 246.755 135.342C249.536 132.31 252.411 128.973 255.298 125.414C255.813 124.773 255.76 123.8 255.183 123.231C254.602 122.663 253.71 122.721 253.195 123.361Z" fill="white"/>
<path d="M19.6918 191.333C18.9801 190.994 18.1467 191.36 17.8439 192.145C16.3175 196.047 14.8161 200.193 13.2554 204.818C12.9869 205.623 13.3552 206.51 14.0857 206.805C14.2511 206.87 14.4166 206.897 14.5758 206.897C15.1501 206.897 15.687 206.513 15.8961 205.89C17.4412 201.309 18.9271 197.208 20.4285 193.354C20.7375 192.573 20.4098 191.669 19.6918 191.333Z" fill="white"/>
<path d="M283.049 80.3944C280.698 84.1287 278.338 87.8254 275.96 91.4812C275.51 92.1732 275.657 93.1428 276.291 93.6361C276.54 93.8314 276.828 93.9205 277.108 93.9205C277.542 93.9205 277.983 93.6944 278.257 93.2764C280.645 89.614 283.011 85.8968 285.371 82.1553C285.811 81.453 285.652 80.4903 285.012 80.0038C284.378 79.5174 283.501 79.692 283.049 80.3944Z" fill="white"/>
<path d="M31.4705 167.53C30.8213 167.047 29.9441 167.242 29.5134 167.944C27.344 171.477 25.2027 175.451 23.1519 179.764C22.7929 180.525 23.0645 181.457 23.7481 181.854C23.9572 181.971 24.1788 182.026 24.4005 182.026C24.9093 182.026 25.3993 181.724 25.6522 181.196C27.6499 176.986 29.7382 173.111 31.8483 169.682C32.2821 168.976 32.1135 168.009 31.4705 167.53Z" fill="white"/>
<path d="M130.558 156.479C130.346 157.304 130.789 158.158 131.532 158.387C135.521 159.617 139.51 160.816 143.497 161.943C143.612 161.978 143.734 161.991 143.846 161.991C144.474 161.991 145.045 161.532 145.21 160.83C145.404 160.004 144.951 159.158 144.196 158.949C140.238 157.832 136.261 156.633 132.293 155.41C131.529 155.18 130.767 155.663 130.558 156.479Z" fill="white"/>
<path d="M106.729 149.234C106.532 150.063 106.982 150.91 107.734 151.125C111.655 152.249 115.628 153.462 119.63 154.705C119.755 154.747 119.883 154.764 120.014 154.764C120.629 154.764 121.194 154.318 121.372 153.637C121.584 152.814 121.147 151.961 120.398 151.728C116.381 150.481 112.391 149.262 108.452 148.134C107.685 147.898 106.919 148.402 106.729 149.234Z" fill="white"/>
<path d="M154.491 163.25C154.328 164.086 154.815 164.908 155.583 165.083C159.978 166.093 163.992 166.871 167.857 167.45C167.922 167.46 167.981 167.464 168.047 167.464C168.743 167.464 169.349 166.902 169.445 166.124C169.552 165.281 169.015 164.504 168.237 164.384C164.445 163.815 160.493 163.048 156.167 162.051C155.356 161.869 154.653 162.41 154.491 163.25Z" fill="white"/>
<path d="M49.1703 148.945C48.7645 148.208 47.903 147.979 47.2381 148.421C43.8076 150.696 40.4989 153.638 37.3869 157.174C36.8469 157.787 36.8625 158.764 37.4244 159.36C37.699 159.648 38.0487 159.792 38.4014 159.792C38.7729 159.792 39.1412 159.637 39.4159 159.322C42.3563 155.978 45.4777 153.197 48.6957 151.069C49.3575 150.624 49.5667 149.675 49.1703 148.945Z" fill="white"/>
<path d="M72.9993 143.13C72.9962 142.28 72.3687 141.592 71.5915 141.592H71.5821C67.0342 141.623 62.8017 142.14 59.0092 143.133C58.2538 143.332 57.7825 144.168 57.9635 144.997C58.1196 145.71 58.7002 146.186 59.337 146.186C59.4431 146.186 59.5555 146.172 59.6617 146.145C63.2482 145.203 67.2655 144.713 71.5985 144.682C72.3757 144.679 73.0086 143.98 72.9993 143.13Z" fill="white"/>
<path d="M96.077 147.98C96.7294 147.98 97.3132 147.487 97.4537 146.761C97.6191 145.932 97.1353 145.102 96.3705 144.928C91.9193 143.876 87.8985 143.095 84.0908 142.536C83.273 142.413 82.6143 143.023 82.5082 143.866C82.4083 144.708 82.9421 145.486 83.7193 145.603C87.4526 146.151 91.3919 146.918 95.7776 147.949C95.8806 147.97 95.9803 147.98 96.077 147.98Z" fill="white"/>
<path d="M9.15987 217.671C7.87693 221.923 6.619 226.246 5.39231 230.618C5.1582 231.437 5.57648 232.3 6.31942 232.554C6.45677 232.602 6.59723 232.626 6.7377 232.626C7.33702 232.626 7.89575 232.201 8.08306 231.54C9.30982 227.192 10.5553 222.889 11.835 218.655C12.0816 217.843 11.6821 216.966 10.9423 216.702C10.1744 216.404 9.40647 216.862 9.15987 217.671Z" fill="white"/>
<path d="M192.496 164.837C191.132 165.036 189.755 165.19 188.36 165.3C185.75 165.515 183.078 165.587 180.394 165.509H180.353C179.592 165.509 178.964 166.17 178.945 167.013C178.92 167.866 179.532 168.578 180.316 168.599C181.055 168.619 181.786 168.63 182.516 168.63C184.561 168.63 186.584 168.551 188.566 168.383C190.011 168.273 191.444 168.109 192.861 167.9C193.629 167.79 194.172 167.013 194.072 166.163C193.972 165.323 193.292 164.734 192.496 164.837Z" fill="white"/>
<path d="M235.758 142.209C232.509 145.2 229.238 147.913 226.022 150.277C225.379 150.753 225.204 151.713 225.635 152.425C225.904 152.871 226.356 153.107 226.806 153.107C227.074 153.107 227.349 153.021 227.592 152.847C230.885 150.418 234.238 147.636 237.565 144.58C238.161 144.028 238.242 143.052 237.743 142.401C237.24 141.743 236.351 141.671 235.758 142.209Z" fill="white"/>
<path d="M215.533 157.005C211.847 159.002 208.07 160.671 204.302 161.966C203.556 162.223 203.147 163.09 203.381 163.902C203.572 164.559 204.127 164.984 204.727 164.984C204.864 164.984 205.005 164.964 205.145 164.912C209.053 163.569 212.967 161.843 216.788 159.77C217.484 159.393 217.771 158.468 217.425 157.697C217.078 156.94 216.229 156.621 215.533 157.005Z" fill="white"/>
<path d="M1.00906 252.008C1.14328 252.052 1.27438 252.069 1.41173 252.069C2.02041 252.069 2.57913 251.638 2.76332 250.966L4.4832 244.611C4.70482 243.789 4.27719 242.932 3.53428 242.686C2.77889 242.442 2.00474 242.912 1.78004 243.727L0.0601501 250.082C-0.164595 250.904 0.259911 251.761 1.00906 252.008Z" fill="white"/>
</svg>
