<svg width="643" height="437" viewBox="0 0 643 437" fill="none" xmlns="http://www.w3.org/2000/svg">
<g opacity="0.7">
<path d="M68.4199 44.8175L68.4306 44.8119L86.9098 33.7158L0 2.00879L53.3589 53.7254L68.4199 44.8175Z" fill="black"/>
<path d="M140.178 1.40302L8.56616 0L107.441 21.1228L140.178 1.40302Z" fill="black"/>
<path d="M71.7959 46.1145L103.936 66.7983L89.6053 35.4248L71.7959 46.1145Z" fill="black"/>
<path d="M90.6376 32.061C90.7972 32.1167 90.8557 32.2781 90.9886 32.3839C91.1269 32.4897 91.297 32.5342 91.3875 32.7013C91.3928 32.7235 91.3875 32.7458 91.3928 32.7569C91.3981 32.7792 91.4194 32.7792 91.4247 32.8015H91.43L105.863 64.3802L106.294 23.815L13.9863 4.09473L90.6376 32.061Z" fill="black"/>
<path d="M133.384 93.1632C133.959 93.1632 134.544 92.9572 134.996 92.5118C135.985 91.5764 136.043 89.9841 135.155 88.9652L128.237 81.0037C127.343 79.9793 125.817 79.8957 124.849 80.8367C123.86 81.772 123.802 83.3643 124.69 84.3832L131.608 92.3447C132.082 92.8904 132.73 93.1632 133.384 93.1632Z" fill="black"/>
<path d="M328.537 16.9242C328.686 16.9242 328.845 16.9075 328.994 16.8797C332.855 16.0835 336.785 15.51 340.645 15.1704C343.304 14.9477 346.011 14.8197 348.739 14.7974C350.063 14.7918 351.132 13.6561 351.122 12.2643C351.116 10.8835 350.047 9.77002 348.723 9.77002H348.702C345.862 9.79229 343.044 9.92034 340.257 10.1597C336.21 10.5105 332.11 11.1174 328.074 11.9414C326.777 12.2142 325.926 13.5337 326.181 14.8921C326.404 16.0947 327.415 16.9242 328.537 16.9242Z" fill="black"/>
<path d="M145.296 108.072C149.87 113.305 154.454 118.533 159.075 123.762C159.548 124.302 160.191 124.563 160.835 124.563C161.42 124.563 161.999 124.346 162.462 123.895C163.441 122.954 163.499 121.362 162.6 120.349C157.99 115.121 153.411 109.91 148.848 104.67C147.954 103.652 146.439 103.596 145.455 104.515C144.471 105.455 144.403 107.042 145.296 108.072Z" fill="black"/>
<path d="M589.157 415.863C587.839 416.035 586.908 417.294 587.067 418.669C587.216 419.95 588.253 420.874 589.455 420.874C589.551 420.874 589.646 420.874 589.748 420.857C596.464 419.983 603.191 419.081 609.934 418.174C611.242 418.001 612.178 416.743 612.008 415.356C611.843 413.987 610.7 413.051 609.317 413.185C602.59 414.087 595.858 414.989 589.157 415.863Z" fill="black"/>
<path d="M528.617 423.246C521.853 423.992 515.11 424.699 508.42 425.361C507.101 425.501 506.138 426.72 506.261 428.106C506.383 429.404 507.425 430.378 508.654 430.378C508.728 430.378 508.797 430.378 508.882 430.372C515.599 429.704 522.347 429.003 529.138 428.24C530.457 428.095 531.409 426.859 531.271 425.473C531.111 424.109 530.016 423.023 528.617 423.246Z" fill="black"/>
<path d="M498.572 154.208C498.801 152.844 497.918 151.547 496.615 151.308C495.312 151.035 494.063 151.981 493.844 153.357C492.754 159.921 490.952 166.646 488.489 173.349C488.016 174.646 488.633 176.099 489.867 176.6C490.154 176.717 490.441 176.756 490.733 176.756C491.701 176.756 492.605 176.144 492.978 175.147C495.541 168.138 497.423 161.1 498.572 154.208Z" fill="black"/>
<path d="M285.83 420.138C286.075 420.233 286.33 420.266 286.58 420.266C287.591 420.266 288.527 419.598 288.856 418.541C289.276 417.221 288.59 415.796 287.325 415.373C280.794 413.118 274.493 410.568 268.606 407.79C267.383 407.227 265.974 407.784 265.431 409.053C264.889 410.317 265.426 411.809 266.638 412.377C272.685 415.217 279.145 417.833 285.83 420.138Z" fill="black"/>
<path d="M190.208 209.409C189.979 210.774 190.851 212.082 192.154 212.316C192.298 212.344 192.436 212.349 192.574 212.349C193.718 212.349 194.728 211.497 194.941 210.273C196.1 203.386 197.472 196.415 199.03 189.556C199.333 188.209 198.536 186.85 197.249 186.527C195.941 186.249 194.654 187.051 194.356 188.392C192.777 195.357 191.383 202.422 190.208 209.409Z" fill="black"/>
<path d="M349.053 280.375C349.132 280.38 349.212 280.38 349.292 280.38C350.515 280.38 351.557 279.417 351.685 278.126C351.823 276.745 350.855 275.514 349.537 275.37C343.176 274.696 336.683 273.215 330.227 270.966C328.956 270.498 327.605 271.244 327.196 272.558C326.77 273.878 327.456 275.303 328.717 275.732C335.497 278.098 342.347 279.657 349.053 280.375Z" fill="black"/>
<path d="M368.629 16.3401C375.037 17.3479 381.615 18.8622 388.177 20.8275C388.395 20.8999 388.618 20.9277 388.841 20.9277C389.884 20.9277 390.846 20.2095 391.144 19.1128C391.516 17.7766 390.772 16.3846 389.506 16.006C382.742 13.9683 375.951 12.4095 369.346 11.3739C367.979 11.1567 366.814 12.1199 366.623 13.484C366.415 14.8647 367.321 16.1397 368.629 16.3401Z" fill="black"/>
<path d="M369.895 279.919C376.468 279.006 383.269 277.374 390.109 275.086C391.38 274.663 392.071 273.249 391.667 271.935C391.263 270.616 389.906 269.859 388.657 270.304C382.084 272.503 375.564 274.062 369.274 274.942C367.965 275.12 367.04 276.384 367.21 277.764C367.37 279.028 368.402 279.947 369.593 279.947C369.683 279.941 369.789 279.936 369.895 279.919Z" fill="black"/>
<path d="M427.917 252.838C427.204 251.675 425.71 251.329 424.604 252.098C418.898 255.973 413.032 259.458 407.177 262.453C405.986 263.055 405.491 264.563 406.071 265.816C406.491 266.707 407.342 267.225 408.225 267.225C408.581 267.225 408.937 267.147 409.272 266.974C415.313 263.895 421.349 260.304 427.21 256.312C428.321 255.555 428.635 253.996 427.917 252.838Z" fill="black"/>
<path d="M259.72 59.5551C260.358 59.5551 261.001 59.2878 261.469 58.7645C266.16 53.5421 271.052 48.7039 276.029 44.3719C277.045 43.4811 277.188 41.8943 276.343 40.8309C275.492 39.7675 273.976 39.6228 272.961 40.5024C267.84 44.9676 262.798 49.9505 257.969 55.3226C257.055 56.3359 257.103 57.9226 258.081 58.8691C258.544 59.3312 259.135 59.5551 259.72 59.5551Z" fill="black"/>
<path d="M450.202 432.467C450.128 431.087 448.899 430.135 447.687 430.084C440.853 430.441 434.094 430.725 427.409 430.92C426.085 430.953 425.037 432.111 425.075 433.497C425.107 434.856 426.181 435.941 427.473 435.941H427.542C434.259 435.747 441.055 435.468 447.926 435.106C449.25 435.034 450.271 433.854 450.202 432.467Z" fill="black"/>
<path d="M366.478 434.99C367.739 434.99 368.791 433.971 368.877 432.64C368.967 431.26 367.957 430.063 366.632 429.968C359.751 429.5 352.977 428.882 346.488 428.125C345.169 427.93 343.978 428.966 343.835 430.347C343.691 431.727 344.638 432.969 345.957 433.125C352.519 433.888 359.363 434.517 366.329 435.001C366.377 434.99 366.43 434.99 366.478 434.99Z" fill="black"/>
<path d="M568.968 418.442C562.225 419.289 555.498 420.118 548.798 420.92C547.49 421.07 546.544 422.323 546.687 423.704C546.831 424.984 547.868 425.931 549.075 425.931C549.165 425.931 549.256 425.931 549.351 425.914C556.057 425.118 562.795 424.283 569.549 423.437C570.857 423.27 571.798 422.022 571.649 420.636C571.495 419.272 570.319 418.287 568.968 418.442Z" fill="black"/>
<path d="M189.282 297.222C189.373 297.222 189.463 297.222 189.559 297.205C190.878 297.049 191.824 295.797 191.67 294.421C190.92 287.657 190.436 280.586 190.234 273.398C190.202 272.012 188.963 270.937 187.772 270.954C186.448 270.988 185.4 272.151 185.437 273.532C185.634 280.864 186.129 288.08 186.9 294.99C187.038 296.281 188.075 297.222 189.282 297.222Z" fill="black"/>
<path d="M427.481 32.6455C421.472 29.1492 415.239 25.97 408.943 23.2085C407.72 22.6629 406.311 23.2753 405.801 24.5559C405.295 25.8364 405.87 27.3062 407.087 27.8463C413.219 30.5298 419.287 33.6254 425.147 37.0327C425.52 37.2498 425.913 37.3501 426.312 37.3501C427.157 37.3501 427.971 36.888 428.413 36.0584C429.061 34.8502 428.64 33.3191 427.481 32.6455Z" fill="black"/>
<path d="M244.69 71.7981C240.638 77.3655 236.697 83.3172 232.991 89.4859C232.278 90.655 232.613 92.214 233.741 92.9489C234.139 93.2162 234.575 93.3386 235.022 93.3386C235.82 93.3386 236.591 92.9211 237.054 92.1695C240.691 86.1287 244.552 80.3051 248.514 74.8493C249.317 73.7525 249.115 72.1714 248.062 71.3306C246.998 70.4732 245.488 70.6901 244.69 71.7981Z" fill="black"/>
<path d="M187.267 230.661C186.491 237.865 185.943 245.059 185.635 252.051C185.571 253.438 186.603 254.613 187.916 254.679H188.033C189.315 254.679 190.373 253.633 190.432 252.291C190.735 245.398 191.277 238.311 192.038 231.218C192.181 229.837 191.24 228.596 189.916 228.44C188.618 228.189 187.411 229.28 187.267 230.661Z" fill="black"/>
<path d="M407.142 431.256H405.595C399.256 431.256 393.023 431.161 386.876 430.983C385.414 430.794 384.446 432.03 384.414 433.427C384.371 434.814 385.414 435.972 386.748 436.005C392.933 436.183 399.224 436.278 405.606 436.278H407.153C408.478 436.278 409.552 435.159 409.552 433.767C409.552 432.369 408.466 431.256 407.142 431.256Z" fill="black"/>
<path d="M186.981 154.807C187.449 155.325 188.077 155.575 188.71 155.575C189.305 155.575 189.912 155.347 190.369 154.874C191.331 153.911 191.363 152.329 190.438 151.327C185.727 146.194 181.068 141.05 176.447 135.911C175.533 134.876 174.017 134.854 173.06 135.794C172.087 136.741 172.044 138.339 172.948 139.341C177.585 144.502 182.265 149.663 186.982 154.808L186.981 154.807Z" fill="black"/>
<path d="M245.262 214.426C245.719 214.872 246.299 215.078 246.873 215.078C247.527 215.078 248.176 214.805 248.649 214.259C249.543 213.224 249.474 211.648 248.49 210.713C243.454 205.914 238.492 201.103 233.605 196.27C232.637 195.307 231.116 195.352 230.217 196.371C229.302 197.384 229.345 198.965 230.313 199.917C235.221 204.783 240.2 209.616 245.262 214.426Z" fill="black"/>
<path d="M310.839 267.362C311.695 267.362 312.52 266.888 312.961 266.031C313.583 264.812 313.147 263.286 311.972 262.629C306.404 259.5 300.831 255.887 294.949 251.561C293.859 250.787 292.365 251.049 291.604 252.179C290.849 253.32 291.11 254.885 292.195 255.681C298.246 260.113 303.979 263.832 309.717 267.055C310.062 267.278 310.456 267.362 310.839 267.362Z" fill="black"/>
<path d="M248.393 402.295C248.792 402.545 249.223 402.668 249.653 402.668C250.456 402.668 251.238 402.244 251.696 401.476C252.397 400.296 252.047 398.748 250.914 398.024C245.123 394.283 239.688 390.168 234.764 385.787C233.769 384.902 232.254 385.024 231.382 386.076C230.526 387.134 230.648 388.721 231.658 389.617C236.763 394.166 242.395 398.431 248.393 402.295Z" fill="black"/>
<path d="M458.956 225.387C458.004 224.419 456.488 224.446 455.563 225.438C450.915 230.437 445.948 235.225 440.785 239.668C439.764 240.553 439.621 242.14 440.456 243.209C440.929 243.81 441.62 244.122 442.317 244.122C442.854 244.122 443.391 243.944 443.849 243.554C449.134 238.989 454.245 234.078 459.021 228.939C459.93 227.943 459.908 226.356 458.956 225.387Z" fill="black"/>
<path d="M484.972 94.9163C485.381 94.9163 485.796 94.8106 486.174 94.5767C487.328 93.8808 487.716 92.3441 487.051 91.1415C483.722 85.0951 479.734 79.1212 475.187 73.3639C474.336 72.2949 472.815 72.1501 471.81 73.0242C470.789 73.9095 470.646 75.4963 471.486 76.5597C475.863 82.1049 479.697 87.8451 482.898 93.6517C483.339 94.459 484.142 94.9163 484.972 94.9163Z" fill="black"/>
<path d="M469.139 213.087C469.57 213.437 470.091 213.604 470.602 213.604C471.314 213.604 472.037 213.265 472.5 212.619C476.802 206.767 480.668 200.727 484.008 194.669C484.673 193.472 484.284 191.935 483.13 191.234C481.998 190.532 480.519 190.955 479.849 192.152C476.611 198.009 472.851 203.872 468.692 209.557C467.884 210.67 468.081 212.246 469.139 213.087Z" fill="black"/>
<path d="M444.893 44.1475C443.819 43.3457 442.319 43.6074 441.548 44.7376C440.782 45.8623 441.032 47.4378 442.112 48.2396C447.611 52.3484 452.854 56.7857 457.687 61.4235C458.145 61.8689 458.724 62.086 459.304 62.086C459.958 62.086 460.602 61.8132 461.075 61.2731C461.974 60.2487 461.904 58.662 460.931 57.7266C455.948 52.9496 450.551 48.3843 444.893 44.1475Z" fill="black"/>
<path d="M328.455 428.12C328.673 426.756 327.79 425.459 326.488 425.236C319.649 424.039 312.996 422.636 306.706 421.066C305.381 420.765 304.121 421.584 303.813 422.931C303.51 424.278 304.302 425.637 305.594 425.96C311.986 427.552 318.751 428.977 325.696 430.191C325.834 430.219 325.962 430.225 326.095 430.225C327.238 430.219 328.258 429.351 328.455 428.12Z" fill="black"/>
<path d="M465.708 431.527C465.798 432.857 466.851 433.865 468.106 433.865H468.266C474.982 433.392 481.763 432.852 488.591 432.261C489.915 432.145 490.894 430.931 490.787 429.556C490.676 428.175 489.564 427.1 488.203 427.256C481.391 427.846 474.637 428.375 467.947 428.843C466.623 428.943 465.623 430.135 465.708 431.527Z" fill="black"/>
<path d="M275.893 242.647C276.34 243.037 276.887 243.215 277.424 243.215C278.116 243.215 278.802 242.909 279.286 242.302C280.131 241.233 279.988 239.646 278.956 238.761C274.292 234.742 269.432 230.338 263.657 224.892C262.657 223.974 261.152 224.057 260.264 225.082C259.381 226.123 259.461 227.704 260.445 228.634C266.263 234.129 271.175 238.583 275.893 242.647Z" fill="black"/>
<path d="M217.054 374.259C217.527 374.854 218.213 375.155 218.9 375.155C219.442 375.155 219.99 374.966 220.442 374.576C221.457 373.685 221.596 372.098 220.745 371.035C216.512 365.74 212.672 360 209.338 353.964C208.679 352.773 207.206 352.355 206.052 353.051C204.908 353.747 204.515 355.284 205.179 356.492C208.647 362.772 212.646 368.747 217.054 374.259Z" fill="black"/>
<path d="M201.984 170.927C206.478 175.676 211.019 180.414 215.625 185.135C216.093 185.609 216.694 185.854 217.306 185.854C217.928 185.854 218.555 185.609 219.018 185.108C219.943 184.117 219.933 182.53 218.986 181.555C214.232 176.673 209.541 171.79 204.909 166.885C206.643 160.944 208.563 154.97 210.637 149.086C211.094 147.778 210.456 146.336 209.217 145.862C207.962 145.384 206.59 146.04 206.138 147.349C203.771 154.086 201.591 160.934 199.661 167.703C199.278 169.04 200.001 170.437 201.267 170.832C201.517 170.899 201.798 170.804 201.984 170.927Z" fill="black"/>
<path d="M225.985 107.046C224.826 106.406 223.358 106.857 222.741 108.093C219.609 114.317 216.594 120.826 213.818 127.422C213.281 128.703 213.834 130.178 215.046 130.741C215.36 130.891 215.69 130.947 216.019 130.947C216.939 130.947 217.822 130.395 218.216 129.454C220.954 122.957 223.9 116.56 226.99 110.43C227.602 109.21 227.15 107.692 225.985 107.046Z" fill="black"/>
<path d="M290.99 32.5454C291.416 32.5454 291.857 32.4229 292.245 32.1779C298.015 28.481 303.992 25.3298 310.007 22.8077C311.241 22.29 311.836 20.8313 311.347 19.5396C310.858 18.2535 309.454 17.6356 308.226 18.1366C301.956 20.7645 295.744 24.0437 289.741 27.8797C288.608 28.6146 288.252 30.1513 288.943 31.3316C289.401 32.1222 290.187 32.5454 290.99 32.5454Z" fill="black"/>
<path d="M491.057 112.547C493.168 119.267 494.45 126.059 494.886 132.74C494.976 134.071 496.029 135.079 497.284 135.079H497.444C498.768 134.978 499.768 133.781 499.677 132.401C499.22 125.297 497.853 118.092 495.625 110.971C495.2 109.652 493.865 108.945 492.594 109.362C491.333 109.808 490.648 111.227 491.057 112.547Z" fill="black"/>
<path d="M192.046 323.29C193.269 327.928 194.699 332.527 196.3 336.925C196.662 337.933 197.582 338.545 198.544 338.545C198.826 338.545 199.113 338.495 199.395 338.389C200.634 337.899 201.256 336.441 200.788 335.149C199.241 330.884 197.853 326.447 196.667 321.948C196.077 319.716 195.529 317.439 195.018 315.128C194.726 313.781 193.476 312.918 192.147 313.241C190.86 313.547 190.041 314.894 190.344 316.247C190.865 318.641 191.429 320.991 192.046 323.29Z" fill="black"/>
<path d="M640.304 408.993L630.104 410.38C628.796 410.552 627.86 411.816 628.03 413.197C628.179 414.466 629.216 415.385 630.412 415.385C630.513 415.385 630.62 415.379 630.721 415.363L640.92 413.976C642.229 413.804 643.165 412.54 642.994 411.159C642.819 409.784 641.628 408.815 640.304 408.993Z" fill="black"/>
</g>
</svg>
