<svg width="1920" height="136" viewBox="0 0 1920 136" fill="none" xmlns="http://www.w3.org/2000/svg">
<path fill-rule="evenodd" clip-rule="evenodd" d="M1920 65.8854L1873.6 69.5457C1828.8 73.206 1737.6 80.5266 1646.4 80.5266C1553.6 80.5266 1462.4 73.206 1371.2 62.2251C1280 51.2442 1188.8 36.603 1097.6 36.603C1006.4 36.603 913.6 51.2442 822.4 65.8854C731.2 80.5266 640 95.1678 548.8 109.809C457.6 124.45 366.4 139.091 273.6 135.431C182.4 131.771 91.2 109.809 46.4 98.8281L0 87.8472V0H46.4C91.2 0 182.4 0 273.6 0C366.4 0 457.6 0 548.8 0C640 0 731.2 0 822.4 0C913.6 0 1006.4 0 1097.6 0C1188.8 0 1280 0 1371.2 0C1462.4 0 1553.6 0 1646.4 0C1737.6 0 1828.8 0 1873.6 0H1920V65.8854Z" fill="#F8F8F6"/>
</svg>
