<svg width="1918" height="131" viewBox="0 0 1918 131" fill="none" xmlns="http://www.w3.org/2000/svg">
<path fill-rule="evenodd" clip-rule="evenodd" d="M0 114.625L63.9333 103.708C127.867 92.7917 255.733 70.9583 383.6 79.1458C511.467 87.3333 639.333 125.542 767.2 125.542C895.067 125.542 1022.93 87.3333 1150.8 73.6875C1278.67 60.0417 1406.53 70.9583 1534.4 84.6042C1662.27 98.25 1790.13 114.625 1854.07 122.812L1918 131V0H1854.07C1790.13 0 1662.27 0 1534.4 0C1406.53 0 1278.67 0 1150.8 0C1022.93 0 895.067 0 767.2 0C639.333 0 511.467 0 383.6 0C255.733 0 127.867 0 63.9333 0H0V114.625Z" fill="#00003E"/>
</svg>
