<svg width="1920" height="136" viewBox="0 0 1920 136" fill="none" xmlns="http://www.w3.org/2000/svg">
<path fill-rule="evenodd" clip-rule="evenodd" d="M0 65.8854L46.4 69.5457C91.2 73.206 182.4 80.5266 273.6 80.5266C366.4 80.5266 457.6 73.206 548.8 62.2251C640 51.2442 731.2 36.603 822.4 36.603C913.6 36.603 1006.4 51.2442 1097.6 65.8854C1188.8 80.5266 1280 95.1678 1371.2 109.809C1462.4 124.45 1553.6 139.091 1646.4 135.431C1737.6 131.771 1828.8 109.809 1873.6 98.8281L1920 87.8472V0H1873.6C1828.8 0 1737.6 0 1646.4 0C1553.6 0 1462.4 0 1371.2 0C1280 0 1188.8 0 1097.6 0C1006.4 0 913.6 0 822.4 0C731.2 0 640 0 548.8 0C457.6 0 366.4 0 273.6 0C182.4 0 91.2 0 46.4 0H0V65.8854Z" fill="#F8F8F6"/>
</svg>
