<svg width="1918" height="98" viewBox="0 0 1918 98" fill="none" xmlns="http://www.w3.org/2000/svg">
<path fill-rule="evenodd" clip-rule="evenodd" d="M1918 85.5L1854.07 77.1667C1790.13 68.8333 1662.27 52.1667 1534.4 58.4167C1406.53 64.6667 1278.67 93.8333 1150.8 93.8333C1022.93 93.8333 895.067 64.6667 767.2 54.25C639.333 43.8333 511.467 52.1667 383.6 62.5833C255.733 73 127.867 85.5 63.9333 91.75L0 98V-2H63.9333C127.867 -2 255.733 -2 383.6 -2C511.467 -2 639.333 -2 767.2 -2C895.067 -2 1022.93 -2 1150.8 -2C1278.67 -2 1406.53 -2 1534.4 -2C1662.27 -2 1790.13 -2 1854.07 -2H1918V85.5Z" fill="#00003E"/>
</svg>
