<svg width="1920" height="74" viewBox="0 0 1920 74" fill="none" xmlns="http://www.w3.org/2000/svg">
<path fill-rule="evenodd" clip-rule="evenodd" d="M1920 38.1506L1873.6 36.159C1828.8 34.1673 1737.6 30.1841 1646.4 30.1841C1553.6 30.1841 1462.4 34.1673 1371.2 40.1422C1280 46.1171 1188.8 54.0837 1097.6 54.0837C1006.4 54.0837 913.6 46.1171 822.4 38.1506C731.2 30.1841 640 22.2175 548.8 14.251C457.6 6.28444 366.4 -1.6821 273.6 0.30954C182.4 2.30117 91.2 14.251 46.4 20.2259L0 26.2008V74H46.4C91.2 74 182.4 74 273.6 74C366.4 74 457.6 74 548.8 74C640 74 731.2 74 822.4 74C913.6 74 1006.4 74 1097.6 74C1188.8 74 1280 74 1371.2 74C1462.4 74 1553.6 74 1646.4 74C1737.6 74 1828.8 74 1873.6 74H1920V38.1506Z" fill="#F8F8F6"/>
</svg>
