<svg width="80" height="80" viewBox="0 0 80 80" fill="none" xmlns="http://www.w3.org/2000/svg">
<path d="M40 1C42.7677 1 45 3.23228 45 6V28.5723L45.4932 28.8623L79 48.5713V54.6631L46.2822 45.041L45 44.6631V68.5664L45.4854 68.8574L55 74.5654V78.7197L40.2422 75.0303L40 74.9688L39.7578 75.0303L25 78.7197V74.5654L34.5146 68.8574L35 68.5664V44.6631L33.7178 45.041L1 54.6631V48.5713L34.5068 28.8623L35 28.5723V6C35 3.23228 37.2323 1 40 1Z" fill="#00003E" stroke="#BA0E0A" stroke-width="2"/>
<path d="M34.7976 33.9246L40.7004 30.5166L38.3726 29.1726L39.7443 28.3806L46.0836 32.0406L44.7119 32.8326L42.384 31.4886L36.4812 34.8966L34.7976 33.9246ZM42.8845 36.6736L44.7343 35.4976L51.8843 35.3896L53.7549 36.4696L47.2389 36.6076L45.3059 36.6436L42.8845 36.6736ZM39.7149 36.7636L46.9895 32.5636L48.6626 33.5296L41.388 37.7296L39.7149 36.7636ZM44.6928 39.6376L45.2747 36.3136L47.5714 36.2596L46.6569 40.7716L44.6928 39.6376ZM49.1739 42.2248L53.31 36.2128L55.1287 37.2628L51.429 42.5668L50.3586 41.9488L59.587 39.8368L61.2601 40.8028L50.8367 43.1848L49.1739 42.2248Z" fill="white"/>
</svg>
